<svg xmlns="http://www.w3.org/2000/svg" width="1024" height="1024" viewBox="0 0 1024 1024">
  <rect width="1024" height="1024" fill="none"/>
  <rect x="116" y="116" width="792" height="792" rx="150" fill="#E9F0E7"/>
  <path d="
    M 360 260
    H 536
    C 660 260 736 336 736 430
    C 736 486 692 525 616 525
    C 692 525 736 564 736 620
    C 736 714 660 790 536 790
    H 360
    C 324 790 302 768 302 732
    V 318
    C 302 282 324 260 360 260
    Z" fill="#6A9D98"/>
  <path d="M 707 212 L 736 304 L 828 333 L 736 362 L 707 454 L 678 362 L 586 333 L 678 304 Z" fill="#7EA8D9"/>
</svg>